<?xml version="1.0" standalone="no"?>
<!DOCTYPE svg PUBLIC "-//W3C//DTD SVG 20010904//EN"
 "http://www.w3.org/TR/2001/REC-SVG-20010904/DTD/svg10.dtd">
<svg version="1.0" xmlns="http://www.w3.org/2000/svg"
 width="400.000000pt" height="400.000000pt" viewBox="0 0 400.000000 400.000000"
 preserveAspectRatio="xMidYMid meet">
<metadata>
Created by potrace 1.14, written by Peter Selinger 2001-2017
</metadata>
<g transform="translate(0.000000,400.000000) scale(0.100000,-0.100000)"
fill="#000000" stroke="none">
<path d="M1382 2868 c6 -18 28 -21 28 -4 0 9 -7 16 -16 16 -9 0 -14 -5 -12
-12z"/>
<path d="M1390 2811 c-7 -14 -5 -23 10 -36 19 -17 21 -17 45 9 30 32 26 43
-15 44 -19 0 -33 -6 -40 -17z"/>
<path d="M1545 2780 c-7 -12 2 -30 16 -30 12 0 12 27 0 35 -5 3 -12 1 -16 -5z"/>
<path d="M1304 2700 c-73 -55 -91 -81 -99 -145 -3 -30 -11 -55 -16 -55 -5 0
-9 -11 -9 -24 0 -13 -6 -37 -14 -53 -33 -66 -44 -100 -36 -113 6 -10 -11 -35
-55 -82 -72 -78 -122 -150 -166 -239 -44 -89 -31 -81 16 9 40 77 126 192 184
246 33 32 39 24 21 -30 -7 -22 -5 -43 9 -89 15 -47 16 -64 7 -79 -6 -10 -23
-42 -38 -70 -17 -32 -27 -44 -27 -31 0 11 3 26 8 34 14 22 2 44 -15 30 -21
-17 -17 -34 4 -18 15 13 16 12 3 -3 -7 -10 -17 -15 -22 -13 -4 3 -19 -11 -33
-32 -15 -21 -26 -31 -26 -23 -1 12 -3 11 -11 -3 -6 -9 -15 -15 -21 -11 -6 4
-8 -1 -6 -12 2 -11 9 -18 16 -17 10 2 -16 -68 -31 -84 -14 -13 -6 23 9 45 15
22 11 47 -6 37 -5 -3 -11 -1 -15 5 -3 5 -2 10 3 10 5 0 14 17 20 39 14 46 15
61 3 61 -5 0 -7 -8 -4 -19 3 -10 0 -22 -6 -25 -6 -4 -11 -14 -11 -22 0 -8 -13
-32 -29 -52 -16 -20 -37 -62 -47 -92 -11 -30 -20 -57 -21 -59 -6 -9 -32 34
-33 52 0 11 -5 17 -12 14 -7 -2 -12 -9 -11 -15 1 -5 -4 -16 -12 -22 -30 -25
-5 -80 30 -67 8 4 19 -1 24 -11 8 -15 15 -15 58 -4 54 15 123 59 303 197 69
53 136 101 150 108 14 6 97 14 185 18 156 7 257 15 303 25 15 3 22 12 22 28 0
32 14 36 145 36 105 0 148 -8 220 -39 11 -5 40 -17 65 -27 25 -11 74 -46 110
-78 36 -32 89 -77 118 -98 104 -77 132 -145 98 -243 -39 -112 -32 -243 17
-307 46 -60 54 -58 49 11 -4 57 -2 64 42 138 25 42 46 85 46 94 0 26 43 88 61
89 32 0 97 69 114 120 18 53 60 101 107 121 39 16 19 29 -46 29 -60 0 -117
-26 -180 -81 -32 -28 -51 -39 -65 -34 -21 6 -65 67 -76 105 -13 44 -58 133
-99 195 -59 89 -167 192 -188 179 -7 -4 -8 -3 -4 4 12 21 -146 114 -275 161
-131 48 -177 55 -365 56 l-181 0 18 24 c14 17 16 28 8 42 -15 30 -48 24 -60
-11 -8 -22 -17 -30 -35 -30 -33 0 -30 -16 4 -25 24 -7 21 -9 -38 -26 -36 -10
-66 -18 -67 -19 -9 -2 34 139 57 183 33 63 39 114 15 123 -17 7 -62 -18 -88
-50 -17 -21 -17 -21 -7 7 10 28 6 48 -8 46 -4 0 -30 -18 -58 -39z m34 -319
c-27 -32 -47 -87 -53 -142 -7 -68 -23 -94 -52 -85 -24 8 -35 48 -26 100 3 20
0 49 -7 65 -9 24 -9 34 4 59 9 17 16 40 16 52 0 11 7 23 15 26 8 4 15 15 15
25 0 11 11 29 25 41 14 12 25 27 25 35 0 7 8 22 18 33 16 20 17 17 25 -86 7
-84 5 -109 -5 -123z m647 59 c90 -22 241 -82 316 -126 32 -19 59 -37 59 -39 0
-2 -38 14 -85 36 -84 39 -130 49 -123 28 2 -6 26 -20 53 -30 89 -36 174 -83
210 -117 19 -18 35 -36 35 -40 0 -3 -15 8 -32 25 -36 34 -111 73 -143 73 -14
0 -9 -7 19 -23 43 -24 58 -47 31 -47 -26 0 -84 30 -140 71 -85 62 -105 69
-212 70 -54 1 -111 5 -128 9 l-30 8 28 1 c15 0 27 5 27 9 0 11 -69 32 -103 32
-36 0 -79 18 -72 30 4 6 -16 10 -52 11 l-58 1 50 14 c120 35 221 36 350 4z
m-470 -33 c-22 -13 -49 -26 -59 -30 -31 -12 -12 -17 25 -7 43 13 129 13 149 0
11 -7 3 -10 -29 -10 -54 0 -97 -25 -151 -88 l-40 -47 22 41 c12 23 19 48 15
58 -11 28 -63 -5 -77 -49 -7 -20 -14 -34 -17 -31 -11 11 28 93 55 119 33 32
99 66 127 66 14 1 8 -6 -20 -22z m-144 -236 c-22 -26 -48 -54 -58 -62 -10 -8
3 11 27 41 42 51 60 69 68 70 2 0 -14 -22 -37 -49z m-318 -249 c-5 -13 -13
-18 -20 -14 -10 6 -9 14 4 32 18 26 28 15 16 -18z m111 23 c-4 -8 -8 -15 -10
-15 -2 0 -4 7 -4 15 0 8 4 15 10 15 5 0 7 -7 4 -15z m-10 -38 c7 -6 6 -7 -4
-4 -8 2 -16 12 -17 23 -2 13 -1 15 4 4 3 -8 11 -19 17 -23z m-114 -21 c0 -2
-8 -10 -17 -17 -16 -13 -17 -12 -4 4 13 16 21 21 21 13z m-125 -83 l-24 -48 3
40 c4 50 27 91 38 71 5 -9 -2 -34 -17 -63z m145 73 c0 -2 -8 -10 -17 -17 -16
-13 -17 -12 -4 4 13 16 21 21 21 13z m1920 -19 c-25 -9 -35 -18 -36 -34 -1
-12 -13 -36 -28 -53 -26 -31 -35 -57 -16 -45 6 3 10 4 10 2 0 -3 -20 -17 -45
-31 -44 -26 -61 -44 -30 -32 8 3 15 1 15 -3 0 -14 -30 -22 -57 -15 l-26 7 29
15 c30 16 69 59 69 77 0 19 56 100 78 112 12 7 33 12 47 12 21 0 20 -2 -10
-12z m-251 -296 l-1 -26 -8 25 c-7 21 -8 22 -10 5 -1 -11 -1 -40 0 -64 1 -27
-2 -41 -8 -37 -13 8 -22 -6 -28 -42 -3 -15 -13 -34 -23 -42 -10 -8 -21 -22
-24 -30 -3 -8 -6 0 -6 18 -1 19 5 46 13 60 8 15 17 35 20 45 3 10 10 16 15 13
12 -8 30 76 23 111 -5 28 -5 28 17 9 12 -11 21 -30 20 -45z"/>
<path d="M915 1849 c-4 -6 -5 -12 -2 -15 2 -3 7 2 10 11 7 17 1 20 -8 4z"/>
<path d="M1816 2674 c-7 -19 10 -44 29 -44 19 0 36 25 29 44 -3 9 -16 16 -29
16 -13 0 -26 -7 -29 -16z"/>
<path d="M1932 2638 c6 -18 28 -21 28 -4 0 9 -7 16 -16 16 -9 0 -14 -5 -12
-12z"/>
<path d="M1762 2623 c-13 -26 -4 -43 23 -43 27 0 40 26 24 46 -16 19 -37 17
-47 -3z"/>
<path d="M1875 2621 c-7 -12 12 -24 25 -16 11 7 4 25 -10 25 -5 0 -11 -4 -15
-9z"/>
<path d="M1661 2546 c-9 -10 -9 -16 -1 -21 17 -10 37 12 24 25 -8 8 -15 6 -23
-4z"/>
<path d="M1110 2114 c0 -5 -11 -21 -25 -36 -14 -15 -37 -44 -51 -65 -25 -37
-25 -37 -18 -8 9 40 -1 29 -19 -20 -28 -79 -29 -81 -13 -55 9 15 15 19 16 10
0 -8 15 8 34 35 60 87 88 136 82 142 -3 4 -6 2 -6 -3z"/>
<path d="M2611 2078 c26 -28 34 -45 27 -49 -8 -5 -2 -10 14 -14 50 -13 113 39
87 71 -18 22 -28 17 -45 -23 l-15 -38 -13 31 c-8 18 -28 37 -49 47 -49 24 -49
22 -6 -25z"/>
<path d="M1900 2055 c0 -9 5 -15 11 -13 6 2 11 8 11 13 0 5 -5 11 -11 13 -6 2
-11 -4 -11 -13z"/>
<path d="M1909 1998 c-11 -21 3 -48 26 -48 13 0 45 42 45 58 0 18 -61 9 -71
-10z"/>
<path d="M3068 1989 l-27 -29 33 0 c40 0 71 21 63 44 -9 24 -38 18 -69 -15z"/>
<path d="M3200 1965 c-11 -13 -11 -19 4 -33 20 -20 51 -6 51 24 0 24 -37 30
-55 9z"/>
<path d="M2055 1961 c-3 -5 -1 -12 5 -16 12 -7 30 2 30 16 0 12 -27 12 -35 0z"/>
<path d="M2905 1911 c-27 -16 -68 -48 -90 -72 l-40 -42 50 40 c28 23 64 47 80
56 48 23 131 39 167 32 25 -5 29 -4 18 4 -8 6 -42 11 -75 11 -48 0 -70 -6
-110 -29z"/>
<path d="M3120 1936 c0 -2 7 -17 15 -32 8 -16 15 -39 15 -51 0 -27 20 -35 42
-15 15 13 16 17 3 42 -16 30 -75 75 -75 56z"/>
<path d="M767 1883 c-12 -12 -7 -41 7 -46 22 -9 41 19 26 38 -14 16 -23 19
-33 8z"/>
<path d="M3248 1840 c13 -23 14 -33 4 -55 -7 -14 -16 -24 -21 -20 -6 3 -14 -2
-19 -10 -4 -9 -26 -22 -47 -30 -47 -15 -54 -29 -25 -45 19 -10 26 -8 50 15
l27 26 15 -22 14 -22 22 23 c15 16 22 36 22 63 0 40 -24 93 -46 101 -8 3 -7
-5 4 -24z"/>
<path d="M3187 1819 c-9 -5 -21 -8 -26 -5 -16 10 -41 -5 -41 -24 0 -43 46 -36
73 10 20 33 20 34 -6 19z"/>
<path d="M831 1764 c0 -11 3 -14 6 -6 3 7 2 16 -1 19 -3 4 -6 -2 -5 -13z"/>
<path d="M3100 1745 c0 -8 5 -15 10 -15 6 0 10 7 10 15 0 8 -4 15 -10 15 -5 0
-10 -7 -10 -15z"/>
<path d="M3382 1749 c2 -6 8 -10 13 -10 5 0 11 4 13 10 2 6 -4 11 -13 11 -9 0
-15 -5 -13 -11z"/>
<path d="M3417 1743 c-15 -14 -7 -43 12 -43 23 0 34 23 18 39 -13 13 -21 14
-30 4z"/>
<path d="M3288 1688 c-14 -21 -18 -22 -49 -11 -28 11 -36 10 -47 -1 -23 -23
-4 -38 40 -34 38 4 39 3 19 -10 -24 -16 -28 -42 -6 -42 23 0 52 38 58 78 8 44
4 49 -15 20z"/>
<path d="M3335 1700 c-9 -15 6 -60 20 -60 14 0 29 45 20 60 -4 6 -12 10 -20
10 -8 0 -16 -4 -20 -10z"/>
<path d="M2946 1672 c-3 -6 -1 -14 5 -17 15 -10 25 3 12 16 -7 7 -13 7 -17 1z"/>
<path d="M2909 1619 c-8 -11 -30 -24 -48 -28 l-35 -7 43 -14 c39 -12 47 -12
72 2 26 15 29 15 38 1 13 -24 43 -9 39 19 -2 16 -10 23 -25 23 -13 0 -28 6
-35 13 -18 18 -34 15 -49 -9z"/>
<path d="M3170 1611 c0 -6 5 -13 10 -16 6 -3 10 1 10 9 0 9 -4 16 -10 16 -5 0
-10 -4 -10 -9z"/>
</g>
</svg>
